<?xml version="1.0" encoding="UTF-8"?>
<svg width="15px" height="14px" viewBox="0 0 15 14" version="1.1" xmlns="http://www.w3.org/2000/svg" xmlns:xlink="http://www.w3.org/1999/xlink">
    <title>close_modal</title>
    <g id="Page-1" stroke="none" stroke-width="1" fill="none" fill-rule="evenodd">
        <g id="Artboard" transform="translate(-434.000000, -183.000000)" fill="#C6C6C8" fill-rule="nonzero">
            <path d="M448.561883,197 L445.749503,196.987515 L441.513889,192.055886 L437.282536,196.983353 L434.465895,196.995838 C434.278403,196.995838 434.125,196.850178 434.125,196.662901 C434.125,196.583829 434.154828,196.508918 434.205962,196.446492 L439.74976,189.995838 L434.205962,183.549346 C434.154472,183.488351 434.125902,183.411985 434.125,183.332937 C434.125,183.149822 434.278403,183 434.465895,183 L437.282536,183.012485 L441.513889,187.944114 L445.745242,183.016647 L448.557622,183.004162 C448.745114,183.004162 448.898517,183.149822 448.898517,183.337099 C448.898517,183.416171 448.868688,183.491082 448.817554,183.553508 L443.282279,190 L448.821815,196.450654 C448.87295,196.51308 448.902778,196.58799 448.902778,196.667063 C448.902778,196.850178 448.749375,197 448.561883,197 Z" id="close_modal"></path>
        </g>
    </g>
</svg>