<?xml version="1.0" encoding="UTF-8"?>
<svg width="25px" height="26px" viewBox="0 0 25 26" version="1.1" xmlns="http://www.w3.org/2000/svg" xmlns:xlink="http://www.w3.org/1999/xlink">
    <title>delete_history</title>
    <g id="Page-1" stroke="none" stroke-width="1" fill="none" fill-rule="evenodd">
        <g id="Artboard" transform="translate(-602.000000, -177.000000)" fill="#18A2D9" fill-rule="nonzero">
            <path d="M614.902911,177 C617.138863,177 618.986098,178.727218 619.112687,180.936593 L619.119174,181.17284 L625.93006,181.17284 C626.44157,181.172995 626.865619,181.565103 626.900483,182.070167 C626.935347,182.575231 626.569121,183.020774 626.062386,183.089778 L625.93006,183.098765 L624.8974,183.098765 L623.236841,199.815802 C623.065007,201.53711 621.658544,202.8818 619.914426,202.992296 L619.686099,203 L610.119723,203 C608.371253,203 606.880481,201.745787 606.598819,200.037926 L606.568981,199.814519 L604.907124,183.098765 L603.875762,183.098765 C603.389548,183.098745 602.977984,182.743501 602.911859,182.266765 L602.902778,182.135802 C602.902778,181.654596 603.261739,181.247271 603.743436,181.181827 L603.875762,181.17284 L610.686648,181.17284 C610.686648,178.868244 612.574333,177 614.902911,177 Z M622.902778,183 L606.902778,183 L608.538276,199.549714 C608.612945,200.311088 609.216078,200.914514 609.980148,200.992286 L610.144085,201 L619.662762,201 C620.437267,201 621.094307,200.453571 621.244044,199.711714 L621.269861,199.549714 L622.901487,183 L622.902778,183 Z M616.902778,186 C617.402492,186 617.825483,186.358086 617.893444,186.838608 L617.902778,186.970612 L617.902778,196.029654 C617.902617,196.539916 617.495427,196.962931 616.970938,196.997711 C616.446448,197.03249 615.983769,196.667157 615.912111,196.161657 L615.902778,196.029654 L615.902778,186.970612 C615.902778,186.434558 616.350493,186 616.902778,186 Z M612.902778,186 C613.402492,186 613.825483,186.358086 613.893444,186.838608 L613.902778,186.970612 L613.902778,196.029654 C613.902617,196.539916 613.495427,196.962931 612.970938,196.997711 C612.446448,197.03249 611.983769,196.667157 611.912111,196.161657 L611.902778,196.029654 L611.902778,186.970612 C611.902778,186.434558 612.350493,186 612.902778,186 Z M614.902778,179 C613.862044,179.000039 612.995272,179.798224 612.909635,180.835429 L612.902778,181 L616.902778,181 C616.902778,179.895431 616.007347,179 614.902778,179 L614.902778,179 Z" id="delete_history"></path>
        </g>
    </g>
</svg>