<?xml version="1.0" encoding="UTF-8"?>
<svg width="38px" height="28px" viewBox="0 0 38 28" version="1.1" xmlns="http://www.w3.org/2000/svg" xmlns:xlink="http://www.w3.org/1999/xlink">
    <title>delete_num</title>
    <g id="Page-1" stroke="none" stroke-width="1" fill="none" fill-rule="evenodd">
        <g id="Artboard" transform="translate(-327.000000, -177.000000)" fill="#C6C6C8" fill-rule="nonzero">
            <path d="M353.995967,190.517857 L356.478004,188.03582 C357.143225,187.347065 357.133712,186.252255 356.456622,185.575165 C355.779531,184.898074 354.684721,184.888561 353.995967,185.553782 L351.513929,188.03582 L349.031892,185.553782 C348.591173,185.097473 347.938535,184.914469 347.32482,185.075109 C346.711105,185.235749 346.231821,185.715033 346.071181,186.328748 C345.910541,186.942463 346.093545,187.595101 346.549854,188.03582 L349.031892,190.517857 L346.549854,192.999895 C346.093545,193.440613 345.910541,194.093251 346.071181,194.706966 C346.231821,195.320682 346.711105,195.799966 347.32482,195.960606 C347.938535,196.121245 348.591173,195.938242 349.031892,195.481932 L351.513929,192.999895 L353.995967,195.481932 C354.436685,195.938242 355.089323,196.121245 355.703038,195.960606 C356.316754,195.799966 356.796038,195.320682 356.956678,194.706966 C357.117317,194.093251 356.934314,193.440613 356.478004,192.999895 L353.995967,190.517857 Z M341.019499,177.017857 L360.235679,177.017857 C362.322349,177.017857 364.013929,178.744759 364.013929,180.875 L364.013929,200.160714 C364.013929,202.290955 362.322349,204.017857 360.235679,204.017857 L341.019499,204.017857 C340.017527,204.017857 339.056671,203.611119 338.348276,202.887714 L327.567039,191.881357 C326.829559,191.12825 326.829559,189.907464 327.567039,189.154357 L338.348276,178.148 C339.056671,177.424595 340.017527,177.017857 341.019499,177.017857 Z" id="delete_num"></path>
        </g>
    </g>
</svg>