<?xml version="1.0" encoding="UTF-8"?>
<svg width="137px" height="136px" viewBox="0 0 137 136" version="1.1" xmlns="http://www.w3.org/2000/svg" xmlns:xlink="http://www.w3.org/1999/xlink">
    <title>logo</title>
    <g id="Page-1" stroke="none" stroke-width="1" fill="none" fill-rule="evenodd" stroke-linecap="round">
        <g id="logo" transform="translate(4.000000, 4.000000)" stroke="#1BB3F3" stroke-width="7">
            <g>
                <path d="M3.73120767,40.7801758 C1.32696271,46.5782566 1.27897692e-13,52.9359467 1.27897692e-13,59.6035655 C1.27897692e-13,66.2711843 1.32696271,72.6288743 3.73120767,78.4269552 C6.22361873,84.4376575 9.8737708,89.8469552 14.4034957,94.3766801 C23.3027118,103.275896 35.5968644,108.780176 49.1766103,108.780176 C55.8442291,108.780176 62.2019192,107.453213 68,105.048968 M43.8666935,1.6842853 C37.847698,3.46468653 32.0717601,6.43446681 26.8900471,10.6305353 C21.7083341,14.8266037 17.6025656,19.8588715 14.6096509,25.3761712 C11.506983,31.095796 9.60028422,37.3366782 8.93067505,43.7075839 C7.61514336,56.2240319 11.0744756,69.2423383 19.6204866,79.795783 C23.8165551,84.977496 28.8488228,89.0832645 34.3661226,92.0761792 M100.012796,9.14121444 C94.9041575,5.49430574 89.0079163,2.77118391 82.5111881,1.27129603 C76.01446,-0.228591847 69.5212154,-0.365808182 63.3309016,0.672531735 C56.9135827,1.74894863 50.8218193,4.08872031 45.3892246,7.48338226 C34.7162068,14.152624 26.587419,24.8934847 23.5326408,38.1251827 C22.0327529,44.6219108 21.8955366,51.1151554 22.9338765,57.3054692 M129.099917,56.9756121 C128.719127,50.71038 127.124765,44.4144239 124.201873,38.4216078 C121.278981,32.4287917 117.299287,27.2962399 112.596655,23.138911 C107.721572,18.8291286 102.069557,15.5674054 96.0125668,13.4818163 C84.1128448,9.38441343 70.6500163,9.82660146 58.4446215,15.7795703 C52.4518054,18.702462 47.3192536,22.682156 43.1619247,27.3847884 M109.270005,109.980451 C113.972637,105.823122 117.952331,100.69057 120.875223,94.6977539 C123.798115,88.7049378 125.392476,82.4089816 125.773267,76.1437495 C126.168021,69.6487649 125.258566,63.186799 123.172977,57.1298085 C119.075574,45.2300865 110.43858,34.893471 98.2331855,28.9405022 C92.2403694,26.0176105 85.9444133,24.4232488 79.6791811,24.0424585 M56.178974,127.597827 C62.3692879,128.636167 68.8625324,128.498951 75.3592605,126.999063 C81.8559887,125.499175 87.7522299,122.776053 92.8608689,119.129145 C98.1568468,115.3485 102.606399,110.575074 106.001061,105.142479 C112.670303,94.4694615 115.267925,81.2522137 112.213147,68.0205158 C110.713259,61.5237876 107.990137,55.6275464 104.343229,50.5189074 M9.00289218,96.4225452 C11.9958069,101.939845 16.1015754,106.972113 21.2832884,111.168181 C26.4650014,115.36425 32.2409392,118.33403 38.2599347,120.114431 C44.4996529,121.960121 51.0005819,122.527602 57.3714875,121.857993 C69.8879355,120.542461 81.9025251,114.452065 90.4485361,103.898621 C94.6446046,98.7169076 97.6143849,92.9409698 99.3947861,86.9219743" id="Oval"></path>
                <circle id="Oval-2" cx="65" cy="64" r="13"></circle>
                <line x1="51.5" y1="65.5" x2="51.5" y2="88.5" id="Line"></line>
            </g>
        </g>
    </g>
</svg>
